# xmcd CD database file
#
# Track frame offsets:
#	213
#	21658
#	42164
#	64249
#	87631
#	109773
#	133168
#	151609
#	174227
#	202626
#	220701
#	250102
#	272166
#	297553
#	320348
#
# Disc length: 4500 seconds
#
# Revision: 1
# Processed by: cddbd v1.5.2PL0 Copyright (c) Steve Scherf et al.
# Submitted via: cdripper 1,0,39,0213
#
DISCID=d711920f
DTITLE=WOW Gospel  - WOW Gospel 2009 [CD2]
DYEAR=2009
DGENRE=Gospel
TTITLE0=Dorinda Clark-Cole - Take It Back
TTITLE1=Bishop Noel Jones presents The City Of Refuge - Not About Us
TTITLE2=Shari Addison - I Praise You
TTITLE3=The Tri City Singers - Giants
TTITLE4=Maruette Brown Clark - One God
TTITLE5=Byron Cage - Royalty
TTITLE6=Vanessa Bell Armstrong - It's Over Now
TTITLE7=Marvin Sapp - Never Would Have Made It
TTITLE8=Beverly Crawford - He's Done Enough
TTITLE9=Regina Belle - God Is Good
TTITLE10=Reverend Timothy Wright and The New York Fellowship Mass Choir - Jesus, Jesus, Jesus
TTITLE11=The Clark Sisters - Livin'
TTITLE12=Ricky Dillard and New G - The Light
TTITLE13=Shekinah Glory Ministry - Jesus
TTITLE14=Jesus Kind Of Man - Mighty Clouds Of Joy
EXTD=YEAR: 2009
EXTT0=
EXTT1=
EXTT2=
EXTT3=
EXTT4=
EXTT5=
EXTT6=
EXTT7=
EXTT8=
EXTT9=
EXTT10=
EXTT11=
EXTT12=
EXTT13=
EXTT14=
PLAYORDER=
